<?xml version="1.0" encoding="utf-8"?>
<!-- Generator: Adobe Illustrator 16.0.4, SVG Export Plug-In . SVG Version: 6.00 Build 0)  -->
<!DOCTYPE svg PUBLIC "-//W3C//DTD SVG 1.1//EN" "http://www.w3.org/Graphics/SVG/1.1/DTD/svg11.dtd">
<svg version="1.1" xmlns="http://www.w3.org/2000/svg" xmlns:xlink="http://www.w3.org/1999/xlink" x="0px" y="0px"
	 width="749.692px" height="608.757px" viewBox="0 0 749.692 608.757" enable-background="new 0 0 749.692 608.757"
	 xml:space="preserve">
<g id="Layer_1">
	<g>
		<linearGradient id="SVGID_1_" gradientUnits="userSpaceOnUse" x1="374.8462" y1="413.1738" x2="374.8462" y2="227.1068">
			<stop  offset="0" style="stop-color:#FF7300"/>
			<stop  offset="1" style="stop-color:#FE4F16"/>
		</linearGradient>
		<path fill-rule="evenodd" clip-rule="evenodd" fill="url(#SVGID_1_)" d="M449.753,2.358
			c69.307,6.133,134.242,25.459,192.309,64.71c45.074,30.471,80.055,69.543,97.297,122.074
			c19.352,58.946,10.695,115.249-19.064,168.812c-6.271,11.286-16.768,25.895-24.537,38.135
			c5.232-16.86,11.008-28.235,14.371-51.088c7.017-47.673-1.16-91.722-26.461-132.408c-31.107-50.025-76.67-82.584-130.17-104.955
			c-36.629-15.316-74.865-24.255-114.42-27.724c-105.67-9.268-203.798,12.747-292.495,71.828
			c-46.724,31.122-83.813,71.156-106.44,123.4c-13.523,31.226-18.857,63.901-15.951,97.619c1.016,11.788,1.016,11.788,4.083,23.716
			C17.636,379.02,8.271,355.289,4.289,335.364c-13.121-65.656,4.555-124.045,43.584-176.663
			C88.321,104.17,142.486,67.23,204.195,40.649c45.623-19.652,93.221-31.971,142.654-37.026c11.359-1.162,22.771-1.804,34.15-2.794
			c1.332-0.117,14.256-1.05,28.457-0.779C426.324,0.37,445.087,1.945,449.753,2.358z"/>
		<linearGradient id="SVGID_2_" gradientUnits="userSpaceOnUse" x1="128.8545" y1="413.1738" x2="128.8545" y2="227.1066">
			<stop  offset="0" style="stop-color:#FF7300"/>
			<stop  offset="1" style="stop-color:#FE4F16"/>
		</linearGradient>
		<path fill-rule="evenodd" clip-rule="evenodd" fill="url(#SVGID_2_)" d="M102.697,236.112c24.768,0,48.286,0,72.854,0
			c-0.642,7.733-1.093,15.355-1.93,22.935c-4.456,40.324-9.06,80.631-13.503,120.957c-1.623,14.723-4.762,49.784-4.762,49.784
			c-22.587,0.358-49.182,0.25-73.199,0.25C89.041,365.05,95.841,300.84,102.697,236.112z"/>
		<linearGradient id="SVGID_3_" gradientUnits="userSpaceOnUse" x1="607.4624" y1="413.1738" x2="607.4624" y2="227.1067">
			<stop  offset="0" style="stop-color:#FF7300"/>
			<stop  offset="1" style="stop-color:#FE4F16"/>
		</linearGradient>
		<path fill-rule="evenodd" clip-rule="evenodd" fill="url(#SVGID_3_)" d="M581.509,236.338c24.301,0,48.176,0,72.879,0
			c-1.111,11.218-2.105,22.021-3.266,32.807c-2.119,19.701-4.326,39.393-6.514,59.087c-2.588,23.312-5.193,46.62-7.795,69.929
			c-0.986,8.826-2.924,31.899-2.924,31.899c-20.117-0.156-53.236-0.167-73.354,0.013c0,0,4.33-36.792,5.934-52.194
			c2.053-19.705,4.195-39.402,6.309-59.103c2.551-23.783,5.117-47.563,7.664-71.348
			C580.826,243.845,581.134,240.254,581.509,236.338z"/>
		<linearGradient id="SVGID_4_" gradientUnits="userSpaceOnUse" x1="64.5342" y1="413.1738" x2="64.5342" y2="227.1062">
			<stop  offset="0" style="stop-color:#FF7300"/>
			<stop  offset="1" style="stop-color:#FE4F16"/>
		</linearGradient>
		<path fill-rule="evenodd" clip-rule="evenodd" fill="url(#SVGID_4_)" d="M44.947,386.377c3.898-36.629,7.651-71.892,11.42-107.295
			c9.588,0,18.374,0,27.755,0c-2.506,22.653-4.99,44.809-7.396,66.975c-1.18,10.874-4.77,40.32-4.77,40.32
			S52.601,386.377,44.947,386.377z"/>
		<linearGradient id="SVGID_5_" gradientUnits="userSpaceOnUse" x1="672.3667" y1="413.1738" x2="672.3667" y2="227.1067">
			<stop  offset="0" style="stop-color:#FF7300"/>
			<stop  offset="1" style="stop-color:#FE4F16"/>
		</linearGradient>
		<path fill-rule="evenodd" clip-rule="evenodd" fill="url(#SVGID_5_)" d="M691.568,278.771
			c-1.223,12.057-2.281,23.102-3.475,34.133c-2.105,19.482-7.969,73.313-7.969,73.313s-21.887-0.001-26.959-0.001
			c0.848-9.5,1.545-18.476,2.467-27.427c2.08-20.179,4.279-40.344,6.41-60.516c0.525-4.988,0.967-14.607,1.582-19.503
			C663.625,278.771,682.964,278.771,691.568,278.771z"/>
	</g>
</g>
<g id="Layer_3">
	<path fill-rule="evenodd" clip-rule="evenodd" fill="#333333" d="M338.973,608.757c-21.985-20.009-43.31-39.34-64.55-58.763
		c-29.348-26.833-58.582-53.791-88.02-80.524c-2.854-2.59-3.918-4.744-3.489-8.695c8.228-75.681,16.261-151.384,24.337-227.08
		c1.844-17.277,4.085-34.523,5.393-51.84c0.656-8.692,5.917-13.54,11.949-18.091c17.71-13.36,38.158-20.724,59.508-25.258
		c71.436-15.173,142.965-15.928,214.256,0.868c18.758,4.42,36.57,11.537,51.236,24.959c6.137,5.616,7.979,11.578,7.012,20.004
		c-6.1,53.142-11.615,106.351-17.295,159.54c-4.199,39.326-8.309,78.662-12.652,117.973c-0.24,2.178-1.762,4.795-3.51,6.136
		c-44.354,34.048-88.818,67.953-133.262,101.885C373.039,582.731,356.195,595.602,338.973,608.757z"/>
	<g id="Layer_2">
		<g>
			<defs>
				<path id="SVGID_6_" d="M338.973,608.757c-21.985-20.009-43.31-39.34-64.55-58.763c-29.348-26.833-58.582-53.791-88.02-80.524
					c-2.854-2.59-3.918-4.744-3.489-8.695c8.228-75.681,16.261-151.384,24.337-227.08c1.844-17.277,4.085-34.523,5.393-51.84
					c0.656-8.692,5.917-13.54,11.949-18.091c17.71-13.36,38.158-20.724,59.508-25.258c71.436-15.173,142.965-15.928,214.256,0.868
					c18.758,4.42,36.57,11.537,51.236,24.959c6.137,5.616,7.979,11.578,7.012,20.004c-6.1,53.142-11.615,106.351-17.295,159.54
					c-4.199,39.326-8.309,78.662-12.652,117.973c-0.24,2.178-1.762,4.795-3.51,6.136c-44.354,34.048-88.818,67.953-133.262,101.885
					C373.039,582.731,356.195,595.602,338.973,608.757z"/>
			</defs>
			<clipPath id="SVGID_7_">
				<use xlink:href="#SVGID_6_"  overflow="visible"/>
			</clipPath>
			<g clip-path="url(#SVGID_7_)">
				<path fill-rule="evenodd" clip-rule="evenodd" fill="#020202" d="M425.907,534.642c-7.068,12.339-14.099,24.704-21.242,36.992
					c-1.149,1.979-0.812,3.734-0.371,5.727c1.836,8.295,3.591,16.607,5.37,24.915c0.141,0.653,0.249,1.316,0.345,1.979
					c0.294,2.025,0.743,4.173-1.867,4.816c-2.613,0.646-2.676-1.818-3.033-3.397c-1.469-6.491-2.745-13.035-4.096-19.559
					c-0.291-1.405-0.207-2.988-1.722-4.249c-3.388,4.162-5.629,9.08-8.371,13.611c-1.186,1.957-2.297,3.963-3.479,5.92
					c-0.918,1.521-1.721,3.501-3.916,2.015c-2.436-1.646-1.506-3.626-0.363-5.591c3.115-5.372,5.942-10.975,9.411-16.061
					c4.205-6.168,5.426-12.198,3.496-19.934c-4.342-17.405-7.765-35.083-11.684-53.216c-5.97,4.649-10.31,10.282-15.28,15.129
					c-6.068,5.916-11.739,12.313-17.793,18.25c-2.862,2.806-4.115,5.892-4.208,10.068c-0.336,15.41-0.874,30.815-1.482,46.214
					c-0.07,1.778,1.084,4.958-2.383,4.759c-3.321-0.186-2.377-2.753-2.399-5.141c-0.141-14.822,1.976-29.607,0.703-45.031
					c-4.525,3.163-7.728,7.389-11.673,11.122c-1.579-3.804-0.989-6.635,1.74-9.105c1.888-1.709,3.432-3.926,5.446-5.402
					c4.117-3.018,5.447-7.074,5.541-12.337c0.283-16.068,0.913-32.126,1.425-48.729c-6.705,2.331-11.884,6.613-17.587,9.717
					c-9.417,5.124-18.651,10.643-28.061,15.782c-2.591,1.413-3.878,3.415-4.602,6.319c-1.246,4.999-2.846,9.895-4.044,14.907
					c-0.687,2.87-2.375,3.435-4.49,2.741c-2.604-0.853-0.695-2.81-0.381-4.102c1.015-4.169,2.284-8.262,3.56-12.758
					c-2.587-0.448-3.934,1.531-5.58,2.411c-6.291,3.364-12.498,6.921-18.743,10.396c-1.401,0.78-2.988,2.729-4.289,0.249
					c-1.342-2.56,1.116-3.481,2.454-4.339c5.098-3.266,10.266-6.424,15.543-9.331c12.663-6.974,12.695-6.907,16.772-21.723
					c3.611-13.129,7.177-26.27,10.869-39.37c0.686-2.433,0.655-3.581-2.085-2.861c-15.363,4.038-30.719,8.109-46.123,11.955
					c-1.739,0.434-2.734,1.223-3.561,2.673c-12.957,22.728-25.901,45.462-38.866,68.185c-8.096,14.187-16.195,28.374-24.371,42.507
					c-0.884,1.529-1.715,3.908-4.254,2.155c-2.556-1.766-1.356-3.671-0.292-5.54c6.554-11.501,13.148-22.974,19.706-34.473
					c12.23-21.445,24.473-42.885,36.624-64.385c1.323-2.342,4.835-4.801,3.318-7.123c-1.586-2.43-5.028,0.072-7.581,0.702
					c-19.2,4.729-38.369,9.605-57.571,14.32c-1.722,0.423-4.361,1.661-4.752-1.85c-0.345-3.091,2.213-3.174,4.091-3.649
					c22.751-5.743,45.497-11.521,68.287-17.073c2.451-0.599,3.784-1.994,4.926-4.002c7.527-13.229,14.944-26.534,22.588-39.683
					c2.081-3.581,1.788-4.708-2.267-4.808c-15.247-0.381-30.491-0.981-45.735-1.521c-1.935-0.068-3.35,0.548-4.825,2.164
					c-5.727,6.287-11.678,12.335-17.58,18.431c-1.224,1.265-2.547,2.433-3.919,3.503c-1.113,0.865-2.427,1.925-3.611,0.16
					c-1.046-1.56-0.248-2.801,0.856-3.93c3.914-4.002,7.815-8.02,11.705-12.047c2.421-2.509,4.814-5.046,7.926-8.311
					c-8.712-1.291-16.523-0.487-24.22-1.346c-2.181-0.244-6.443,2.652-6.278-2.769c0.145-4.766,4.108-2.278,6.15-2.324
					c7.544-0.162,15.114,0.044,22.646,0.573c4.712,0.333,8.379-0.601,11.977-4.461c11.04-11.847,22.46-23.275,33.852-34.729
					c2.48-2.492,2.21-3.428-0.906-4.447c-15.891-5.203-31.75-10.518-47.613-15.821c-1.865-0.623-3.278,0.407-4.758,1.271
					c-8.921,5.204-17.834,10.426-26.757,15.629c-1.478,0.862-3.197,2.215-4.42-0.041c-1.294-2.39,0.378-3.502,2.165-4.532
					c8.098-4.675,16.151-9.441,25.317-14.817c-8.895-3.035-16.585-5.664-24.284-8.272c-0.875-0.298-1.779-0.578-2.685-0.666
					c-2.502-0.237-3.147-1.979-2.622-4.192c0.622-2.616,2.392-1.305,3.759-0.868c9.43,3.01,18.888,5.924,28.246,9.179
					c2.44,0.852,4.544,0.784,6.634-0.411c14.132-8.086,28.233-16.236,42.341-24.376c0.542-0.312,1.046-0.702,2.056-1.389
					c-6.985-4.811-13.284-9.214-19.643-13.51c-8.088-5.469-16.315-10.703-24.288-16.359c-2.481-1.762-4.656-1.901-7.326-1.213
					c-16.604,4.279-33.24,8.408-49.831,12.741c-2.153,0.562-4.248,0.444-6.374,0.594c0-1.678,0-3.357,0-5.036
					c0.897,0.04,1.841,0.294,2.684,0.082c11.08-2.801,22.161-5.604,33.208-8.545c5.722-1.524,11.646-2.331,17.808-5.195
					c-1.177-0.867-1.751-1.324-2.355-1.729c-6.389-4.295-12.798-8.558-19.165-12.892c-1.621-1.104-3.158-2.324-1.339-4.766
					c1.461-1.963,2.537-1.337,4.232-0.167c7.898,5.453,15.992,10.569,23.876,16.044c2.133,1.481,4.04,1.907,6.442,1.301
					c15.561-3.93,31.144-7.751,46.708-11.667c2.284-0.574,3.726-1.416,1.308-4.201c-8.873-10.224-17.739-20.462-26.281-31.008
					c-4.836-5.97-9.945-9.472-17.778-8.832c-7.939,0.648-15.995-0.408-24-0.722c-1.65-0.064-3.847,0.392-3.876-2.274
					c-0.033-2.92,2.254-2.633,4.091-2.588c4.158,0.104,8.313,0.326,12.47,0.38c5.236,0.068,10.473,0.016,16.667,0.016
					c-6.482-7.576-12.248-14.237-17.919-20.991c-1.498-1.783-4.83-3.646-1.759-6.395c2.655-2.378,3.979,1.347,5.357,2.888
					c4.809,5.379,9.252,11.144,14.055,16.53c3.89,4.361,6.704,9.684,14.027,9.45c13.683-0.44,27.406,0.643,41.113,1.08
					c5.515,0.175,5.764-0.267,3.203-5.471c-6.747-13.706-13.572-27.367-20.174-41.156c-1.472-3.074-3.273-4.847-6.393-5.785
					c-9.179-2.76-18.285-5.817-27.371-8.927c-1.855-0.635-5.068-0.937-3.981-4.225c0.86-2.597,3.193-1.397,5.168-0.637
					c3.904,1.504,7.903,2.724,11.884,3.985c4.763,1.509,9.548,2.939,14.743,4.531c-0.602-2.94-1.593-4.776-2.756-6.539
					c-1.064-1.616-1.832-3.53,0.173-4.74c2.125-1.284,3.358,0.21,4.153,2.391c0.622,1.703,1.631,3.24,2.221,4.953
					c1.724,4.997,5.07,7.481,9.752,8.826c7.727,2.218,15.319,4.991,22.972,7.515c5.597,1.847,11.199,3.671,16.801,5.502
					c2.102,0.688,3.33,0.543,2.532-2.496c-0.802-3.055-1.142-6.25-1.908-9.317c-3.179-12.718-4.669-25.892-8.785-38.353
					c1.851,0,3.703,0,5.554,0c2.815,17.245,7.025,34.149,10.608,51.207c0.218,1.038,0.422,2.159,1.807,2.583
					c9.889,3.022,19.743,6.173,29.614,9.264c1.734,0.543,2.831,0.451,2.877-2.189c0.173-9.7,0.509-19.398,0.921-29.09
					c0.101-2.37-0.788-3.678-2.539-4.827c-4.978-3.264-9.989-6.491-14.791-10.044c-7.855-5.81-16.57-10.176-23.871-16.903
					c3.086,0,6.171,0,9.257,0c0.497,0.583,0.915,1.286,1.5,1.729c8.732,6.622,18.399,11.66,26.81,18.861
					c2.63,2.251,3.86,0.274,3.917-2.641c0.118-5.981,0.119-11.965,0.17-17.948c1.542,0,3.086,0,4.628,0
					c-0.277,7.854-0.38,15.723-0.965,23.548c-0.132,1.77,0.396,2.691,1.328,3.21c7.922,4.398,15.141,10.047,22.742,15.016
					c2.454,1.605,3.603,0.875,4.299-1.874c1.507-5.945,2.51-12.136,4.736-17.748c3.342-8.421,2.961-15.419-4.035-21.248
					c-0.204-0.17-0.228-0.597-0.336-0.905c4.629,0,9.257,0,13.885,0c0.556,2.106-0.371,3.946-0.943,5.826
					c-0.401,1.312-0.857,2.564,0.189,3.723c6.738,7.446,12.276,16.077,19.464,23.102c2.387,2.332,3.222,1.114,4.463-1.078
					c4.586-8.093,9.224-16.153,13.955-24.146c1.436-2.423,1.659-4.805,0.824-7.426c2.777,0,5.554,0,8.332,0
					c-0.718,2.572-2.624,4.716-0.917,7.928c4.516,8.501,8.72,17.201,12.968,25.867c1.507,3.073,2.879,3.135,5.145,0.678
					c4.865-5.277,9.791-10.523,15.033-15.343c5.122-4.71,8.76-9.53,5.028-17.154c-0.269-0.548-0.162-1.313-0.231-1.976
					c1.543,0,3.087,0,4.629,0c0.607,2.082,0.026,5.273,2.18,5.906c1.772,0.519,2.909-2.443,4.528-3.598
					c0.702-0.5,1.092-1.523,1.623-2.308c1.852,0,3.702,0,5.554,0c-2.178,4.312-5.94,7.016-9.024,10.396
					c-1.632,1.788-2.481,3.206-1.782,6.052c2.057,8.377,3.644,16.891,5.375,25.362c1.038,5.08,1.421,5.103,5.605,2.985
					c7.537-3.812,14.138-9.692,22.415-11.884c1.609-0.426,2.187-2.57,2.216-3.911c0.219-9.663,0.159-19.333,0.188-29
					c1.542,0,3.086,0,4.628,0c0.53,7.841-0.217,15.656-0.435,23.481c-0.067,2.44-0.05,4.157,2.88,2.417
					c14.593-8.671,29.222-17.273,43.839-25.898c3.085,0,6.17,0,9.257,0c-1.948,1.772-4.203,3.017-5.045,6.121
					c-4.343,16-8.886,31.936-13.363,47.893c-0.938,3.342-0.371,4.573,3.217,3.604c13.092-3.528,26.17-7.209,39.402-9.99
					c9.148-1.923,16.521-5.464,19.711-15.763c0.234-0.755,0.927-1.327,1.321-2.04c5.526-9.986,12.012-19.332,16.775-29.825
					c1.851,0,3.703,0,5.555,0c0.52,1.762-0.738,2.824-1.438,4.038c-6.199,10.76-12.461,21.477-18.673,32.227
					c-0.91,1.572-2.4,3-1.746,5.516c7.587-1.839,14.901-3.679,22.251-5.335c1.414-0.319,3.471-1.572,4.143,1.253
					c0.66,2.779-1.412,2.831-2.999,3.242c-8.374,2.17-16.756,4.309-25.131,6.478c-2.114,0.547-3.848,1.434-5.11,3.721
					c-8.467,15.317-17.088,30.531-25.643,45.79c-0.605,1.082-1.906,2.018-1.152,3.538c0.706,1.424,2.093,1.143,3.31,1.186
					c13.238,0.461,26.479,0.88,39.715,1.423c2.78,0.114,4.903-0.626,7.007-2.833c7.53-7.899,15.291-15.537,22.965-23.274
					c1.315-1.326,2.645-3.521,4.543-1.258c1.929,2.3-0.277,3.36-1.604,4.709c-7.216,7.336-14.375,14.736-22.411,22.995
					c2.771,0.146,4.245,0.246,5.722,0.299c8.776,0.319,17.553,0.618,26.33,0.949c1.603,0.061,3.828-0.532,3.727,2.318
					c-0.104,2.966-2.496,1.908-3.912,1.879c-10.784-0.218-21.574-0.442-32.345-1.02c-2.933-0.157-4.889,0.755-6.918,2.885
					c-5.981,6.277-12.262,12.216-18.199,18.539c-5.896,6.28-11.52,12.867-17.39,19.459c0.412,0.225,0.896,0.583,1.432,0.764
					c15.42,5.2,30.836,10.407,46.272,15.54c2.962,0.986,5.711,1.13,8.775-0.766c8.796-5.441,17.852-10.382,26.81-15.509
					c1.558-0.893,3.38-1.785,4.404,0.449c1.073,2.34-0.899,3.05-2.411,3.913c-6.934,3.959-13.827,8.003-20.777,11.934
					c-1.481,0.837-3.795,1.34-3.711,3.156c0.088,1.901,2.539,2.035,4.051,2.538c8.775,2.917,17.593,5.688,26.397,8.51
					c0,1.343,0,2.686,0,4.028c-9.476-1.533-18.6-4.769-27.447-8.419c-8.025-3.311-14.541-1.602-21.472,2.727
					c-10.78,6.73-21.749,13.119-32.778,19.356c-3.941,2.23-3.542,3.532-0.124,5.765c13.154,8.593,26.277,17.246,39.294,26.087
					c2.567,1.743,4.688,0.409,7.047,0.166c1.887-0.191,4.35-2.898,5.57,0.353s-1.806,3.886-4.767,4.869
					c8.249,5.564,15.753,10.623,23.255,15.685c0.902,0.607,1.828,1.183,2.698,1.842c1.111,0.839,2.517,1.472,1.154,3.479
					c-1.177,1.733-2.167,1.855-3.824,0.718c-5.441-3.738-11.34-6.802-16.399-11.055c-8.782-7.386-17.607-9.686-28.57-5.642
					c-11.311,4.171-23.191,6.556-34.886,9.409c-3.354,0.817-2.976,1.786-1.097,3.956c11.895,13.738,23.789,27.48,35.57,41.333
					c1.313,1.546,2.726,1.339,4.168,1.4c9.695,0.417,19.397,0.675,29.091,1.149c1.893,0.094,5.237-1.208,5.138,2.233
					c-0.11,3.734-3.494,2.273-5.581,2.231c-7.7-0.158-15.396-0.529-23.096-0.719c-0.939-0.021-2.294-0.818-2.848,0.655
					c-0.409,1.087,0.657,1.713,1.189,2.493c1.123,1.653,4.188,3.495,2.766,5.015c-1.931,2.057-4.896,0.183-6.289-2.102
					c-3.738-6.131-9.221-6.979-15.264-6.946c-14.617,0.083-29.235,0.027-43.943,0.027c1.256,5.1,4.719,10.096,7.201,15.559
					c4.422,9.728,9.266,19.232,13.925,28.837c1.186,2.443,2.701,4.148,5.38,4.977c10.214,3.16,20.359,6.589,30.499,10.03
					c1.537,0.523,4.397,0.273,3.547,3.355c-0.821,2.968-3.053,1.86-5.024,1.194c-8.95-3.018-17.917-5.97-26.894-8.892
					c-0.53-0.174-1.187,0.113-2.23,0.242c3.313,6.713,6.469,13.149,9.661,19.564c1.68,3.371,3.435,6.698,5.139,10.057
					c0.723,1.426,1.938,2.955-0.076,4.254c-1.928,1.242-3.122,0.212-4.052-1.711c-4.003-8.275-8.273-16.41-12.009-24.827
					c-2.898-6.531-5.979-11.549-13.433-13.397c-12.556-3.116-24.787-7.801-37.122-11.933c-2.889-0.968-4.124-0.603-3.31,3.071
					c3.747,16.896,7.432,33.811,11.103,50.727c0.49,2.263,1.666,3.529,3.527,4.788c29.583,20.023,58.943,40.438,88.782,60.017
					c1.744,1.145,5.808,1.861,3.79,5.475c-2.118,3.793-4.662,0.294-6.611-1.013c-27.706-18.567-55.35-37.247-83.017-55.888
					c-0.897-0.604-1.871-1.071-2.809-1.599c-0.41-0.409-0.832-0.423-1.134,0.091c-0.054,0.091,0.321,0.476,0.497,0.723
					c0.165,6.935,2.339,13.446,3.678,20.121c3.051,15.195,6.402,30.315,9.626,45.47c0.445,2.086,1.473,4.545-1.699,5.056
					c-2.69,0.433-2.558-1.788-2.989-3.861c-4.838-23.311-9.839-46.581-14.697-69.887c-0.753-3.612-3.365-5.029-5.813-6.57
					c-13.921-8.766-26.999-19.03-41.156-27.368c-0.258-0.101-0.614-0.371-0.755-0.275c-0.488,0.337-0.365,0.776,0.024,1.155
					c-1.459,18.036-1.288,36.14-1.873,54.211c-0.064,1.967,1.376,3.188,2.564,4.554c7.179,8.269,14.274,16.622,21.384,24.96
					c1.197,1.403,3.281,2.808,1.008,4.878c-1.957,1.779-3.025-0.416-4.125-1.664c-6.054-6.865-12.064-13.775-18.096-20.662
					c-0.712-0.815-1.273-2.23-2.52-1.735c-1.287,0.512-0.767,2.03-0.802,3.109c-0.305,9.381-0.499,18.766-0.862,28.143
					c-0.065,1.674,0.946,4.213-2.366,4.223c-3.696,0.014-2.429-2.94-2.391-4.609c0.245-10.709,0.55-21.425,1.234-32.108
					c0.261-4.058-0.735-7.201-3.17-10.018c-10.206-11.8-20.429-23.581-30.617-35.396c-3.147-3.651-3.538,0.245-4.055,1.973
					c-2.479,8.266-4.699,16.624-7.026,24.942c-1.876,6.709-3.636,13.46-5.703,20.098c-1.628,5.229-1.456,9.875,1.281,14.793
					c4.501,8.087,8.499,16.51,12.618,24.846c0.816,1.653,2.341,3.892-0.131,5.188c-2.339,1.226-3.077-1.269-3.936-3.006
					c-4.344-8.783-8.684-17.569-13.621-27.56c-3.127,11.215-5.887,21.167-8.679,31.113c-1.479,5.262-2.979,10.518-4.542,15.752
					c-0.467,1.562-0.916,3.312-3.144,2.621c-2.428-0.754-1.959-2.379-1.425-4.32c4.42-16.003,8.641-32.073,13.268-48.003
					c1.024-3.533,0.185-6.019-1.231-8.905c-4.46-9.094-8.767-18.278-13.133-27.431c1.482-0.042,2.964-0.083,4.447-0.124
					c4.136,8.312,8.274,16.623,12.645,25.402c0.608-1.016,1.047-1.485,1.205-2.051c4.674-16.588,9.328-33.182,13.962-49.785
					c0.574-2.062,0.187-3.844-1.255-5.495c-4.752-5.447-9.355-11.054-14.119-16.49c-3.97-4.531-4.051-4.477-7.065,0.582
					c-0.668,1.118-1.09,2.441-2.484,2.756c-0.038-21.456,0.005-42.913-0.19-64.368c-0.033-3.592,1.443-4.685,4.206-5.122
					c5.83-0.93,11.368-2.861,16.612-5.819c14.173-7.983,24.925-20.561,35.975-32.528c10.981-11.892,16.603-27.152,19.528-43.588
					c1.861,1.815,0.229,4.392,1.19,6.522c1.488-0.892,2.25-2.65,2.383-3.993c0.22-2.199,1.031-5.487-2.875-5.348
					c0.683-9.411,1.123-18.729-0.404-28.196c-2.306-14.291-7.307-27.224-14.513-39.281c1.599,0.157,3.126-0.169,2.034-2.309
					c-0.57-1.118-1.552-3.971-3.611-1.209c-5.925-10.63-13.276-19.881-22.402-27.415c1.057-0.578,2.803,0.661,3.234-0.739
					c0.387-1.257-0.588-2.649-1.318-3.942c-1.788-3.163-4.591-1.863-6.941-2.049c-1.504-0.118-0.362,1.424-0.38,2.227
					c-8.72-2.401-17.428-4.449-26.432-5.716c-15.418-2.171-30.343-0.589-45.232,3.173c-4.994,1.262-8.802,5.53-13.51,7.557
					c-24.216,10.427-38.736,29.923-45.443,56.866c-0.399,1.604-0.812,3.245-1.49,4.72c-3.105,6.757-3.787,13.95-4.263,21.392
					c-0.291,4.569,2.45,8.191,1.903,12.562c-0.32,2.561,0.267,4.988,1.115,7.354c-0.823,0.098-1.545-0.189-1.991-0.921
					c-2.086-3.404-2.794-1.427-3.417,1.002c-1.208,4.72,2.686,5.946,4.735,8.991c0.69-2.734,1.227-4.864,1.764-6.994
					c-0.02,6.202,2.999,11.32,5.023,16.8c0.993,2.686,2.039,5.576,4.398,6.869c4.182,2.288,6.373,6.454,8.155,10.478
					c4.961,11.205,11.111,21.236,20.249,28.893c-3.332-0.371-4.596,0.505-2.113,3.918c0.643,0.882,0.784,2.199,1.437,3.064
					c1.974,2.625,4.763,1.445,7.244,1.553c1.824,0.077,1.207-1.361,1.058-2.439c1.308-0.765,1.89,0.515,2.724,1.124
					c2.772,2.016,5.123,4.59,8.179,6.299c5.174,2.896,10.913,2.431,16.282,4.002c2.167,0.635,4.418,1.1,3.105,4.521
					c-2.627-1.513-5.374-1.928-8.316-1.367c-1.642,0.312-2.137,1.091-1.436,2.687c1.831,4.168,5.814,6.046,9.791,4.657
					c1.174,5.366,0.504,10.805,0.53,16.213c-2.81-7.064-5.132-8.037-11.065-4.603c-1.892,1.096-3.688,2.427-5.655,3.319
					c-3.405,1.544-3.172,3.853-1.62,6.744c1.923,3.588,3.841,7.188,5.588,10.88c1.297,2.738,2.263,2.227,3.995,0.311
					c2.653-2.932,5.244-6.021,8.609-8.088c0.097,2.558,0.963,5.187-0.621,7.581c-2.844,1.437-4.544,4.322-6.872,6.415
					c-0.769,0.691-1.441,1.739-0.94,2.581c2.848,4.802,3.94,10.81,8.368,14.524C426.401,505.209,426.147,519.924,425.907,534.642z
					 M425.222,513.454c0-4.148,1.272-8.903-0.261-12.032c-3.303-6.739-6.403-13.635-9.98-20.233
					c-1.386-2.557-2.328-2.18-4.115-0.285c-5.61,5.941-11.08,12.165-17.305,17.265c-5.048,4.133-5.138,8.522-3.821,14.335
					c3.719,16.399,7.124,32.881,10.627,49.339c0.243,1.141,0.263,2.707,1.27,3.024c1.604,0.502,1.854-1.44,2.438-2.48
					c5.607-9.994,10.893-20.214,16.809-29.984C424.491,526.443,426.987,520.56,425.222,513.454z M622.268,179.971
					c-0.941-0.347-1.255-0.597-1.5-0.534c-17.468,4.472-34.929,8.969-52.392,13.463c-1.561,0.403-2.147,1.704-2.585,3.208
					c-2.895,9.963-5.812,19.918-8.721,29.877c-0.647,2.213,0.202,3.002,2.221,3.062c10.462,0.31,20.921,0.682,31.38,1.065
					c1.638,0.06,2.812-0.31,3.798-2.03C603.627,212.094,612.885,196.176,622.268,179.971z M638.712,423.752
					c0-0.631,0.125-1.069-0.018-1.238c-11.698-13.691-23.426-27.349-35.119-41.046c-1.678-1.965-3.43-1.425-5.475-0.858
					c-7.891,2.189-15.76,4.618-23.773,6.073c-4.302,0.783-3.948,2.428-2.42,5.501c4.522,9.092,9.117,18.143,13.471,27.33
					c1.008,2.128,2.146,2.78,4.214,2.833c7.074,0.18,14.142,0.771,21.217,0.822C620.112,423.233,629.409,424.442,638.712,423.752z
					 M657.355,299.113c-0.56-0.502-0.745-0.793-0.989-0.872c-16.33-5.386-32.669-10.741-48.994-16.144
					c-1.776-0.587-2.95,0.285-4.106,1.49c-6.207,6.469-12.337,13.028-18.673,19.343c-2.426,2.417-2.069,3.768,0.525,5.462
					c7.253,4.73,14.587,9.345,21.568,14.519c3.466,2.569,6.193,2.544,9.697,0.408c8.587-5.239,17.354-10.126,26.021-15.212
					C647.367,305.197,652.275,302.174,657.355,299.113z M219.522,282.035c1.202,1.186,1.798,1.975,2.553,2.492
					c13.505,9.23,27.057,18.382,40.52,27.689c1.985,1.373,3.199,0.059,4.604-0.735c7.755-4.383,15.423-8.954,23.237-13.208
					c3.258-1.772,3.549-3.396,1.021-6.208c-5.901-6.561-11.87-13.079-17.371-20.029c-2.088-2.638-3.846-3.015-6.642-2.269
					c-8.337,2.222-16.731,4.186-25.09,6.314C234.91,277.975,227.484,279.954,219.522,282.035z M297.375,509.6
					c1.642-1.136,3.06-2.263,4.59-3.154c13.264-7.746,26.541-15.461,39.831-23.152c1.776-1.027,2.769-2.323,2.832-4.688
					c0.258-9.717,0.664-19.429,1.045-29.14c0.105-2.678-0.795-3.647-3.333-2.964c-9.258,2.494-18.542,4.876-27.818,7.289
					c-1.695,0.44-2.944,1.012-3.56,3.257c-4.038,14.736-8.369,29.376-12.352,44.125C297.922,503.724,295.451,506.012,297.375,509.6z
					 M229.76,409.434c17.354,0.592,33.309,1.119,49.264,1.699c2.053,0.076,3.239-0.742,4.323-2.74
					c4.753-8.765,9.535-17.524,14.675-26.022c2.229-3.684,1.037-4.903-2.108-5.868c-3.701-1.139-7.451-2.157-11.052-3.599
					c-13.635-5.463-13.616-5.52-24.199,5.19c-0.225,0.228-0.5,0.395-0.725,0.623C250.214,388.61,240.494,398.508,229.76,409.434z
					 M522.459,477.359c-0.264,0.001-0.527,0.001-0.792,0.001c0,1.178,0.22,2.412-0.037,3.516c-1.199,5.16,0.98,8.008,5.066,10.229
					c3.972,2.159,7.66,4.938,11.448,7.491c8.483,5.722,16.957,11.468,25.421,17.222c0.911,0.619,1.863,1.693,2.886,0.944
					c1.114-0.812,0.29-2.155,0.06-3.238c-3.373-15.814-6.812-31.613-10.116-47.447c-0.494-2.378-1.335-3.745-3.615-4.468
					c-8.852-2.814-17.644-5.856-26.453-8.821c-2.494-0.84-4.038-0.726-3.929,2.973C522.609,462.955,522.459,470.157,522.459,477.359
					z M292.892,338.801c-8.9-6.088-17.229-11.67-25.432-17.463c-2.643-1.867-4.786-1.875-7.589-0.224
					c-12.935,7.62-25.997,14.979-39.006,22.445c-0.763,0.438-1.793,0.726-1.53,2.194c0.333,0.24,0.67,0.618,1.077,0.756
					c15.539,5.274,31.092,10.499,46.619,15.814c1.754,0.601,2.942,0.015,4.138-1.215
					C278.297,353.77,285.441,346.448,292.892,338.801z M604.131,373.898c0.3-0.071,0.6-0.139,0.897-0.216
					c15.249-3.881,30.497-7.754,45.736-11.664c0.836-0.214,2.039-0.123,2.25-1.36c0.275-1.608-1.147-1.647-2.01-2.228
					c-12.533-8.435-25.104-16.81-37.535-25.421c-2.311-1.601-3.984-0.919-5.934,0.194c-7.888,4.503-15.781,8.995-23.667,13.502
					c-1.969,1.127-2.825,2.368-0.873,4.584c5.957,6.752,11.801,13.624,17.685,20.453
					C601.632,372.847,602.521,374.049,604.131,373.898z M531.352,186.082c-0.27,0-0.537,0-0.806,0c0,2.012,0.151,4.04-0.033,6.032
					c-0.368,3.96,0.333,5.445,4.554,4.148c8.253-2.535,16.671-4.468,25.074-6.359c2.503-0.563,3.632-1.792,4.328-4.346
					c4.195-15.402,8.509-30.765,12.796-46.136c0.26-0.936,0.957-1.929,0.144-2.786c-1.104-1.166-1.917,0.12-2.807,0.638
					c-13.403,7.802-26.758,15.704-40.256,23.302c-2.364,1.331-2.991,2.978-2.992,5.43
					C531.349,172.697,531.352,179.39,531.352,186.082z M238.343,223.726c10.639,12.531,21.205,25.028,31.847,37.447
					c1.322,1.542,3.089,1.706,5.119,1.179c8.8-2.278,17.64-4.376,26.482-6.458c2.076-0.49,2.497-1.478,1.506-3.477
					c-2.112-4.259-4.644-8.368-6.122-12.88c-3.83-11.682-10.125-17.484-22.462-16.098
					C262.896,224.768,250.855,223.726,238.343,223.726z M516.119,501.562c0.318-0.002,0.637-0.003,0.954-0.006
					c0-2.511-0.145-5.037,0.042-7.533c0.183-2.468-0.573-4.019-2.564-5.303c-7.653-4.939-15.255-9.98-22.796-15.125
					c-2.003-1.367-2.807-1.202-3.499,1.396c-2.353,8.834-4.898,17.605-7.385,26.398c-0.755,2.671-0.094,4.659,1.72,6.755
					c10.007,11.565,19.847,23.3,29.781,34.938c0.766,0.895,1.201,2.81,2.668,2.212c1.324-0.538,1.021-2.386,1.027-3.607
					C516.149,528.313,516.119,514.94,516.119,501.562z M267.502,169.967c7.991,16.543,15.43,32.013,22.965,47.426
					c0.724,1.48,2.147,2.104,3.896,2.151c8.615,0.232,17.228,0.598,25.837,0.998c2.838,0.132,3.181-0.767,2.453-3.805
					c-1.699-7.092-2.847-14.342-4.166-21.541c-1.101-6.008-3.156-10.453-9.696-11.718c-6.276-1.215-12.281-4.05-18.429-6.09
					C283.08,174.973,275.771,172.647,267.502,169.967z M316.717,420.823c0.275-2.36-0.577-2.942-2.35-2.988
					c-9.079-0.249-18.154-0.641-27.231-0.94c-1.873-0.062-3.438,0.217-4.638,2.371c-7.069,12.709-14.328,25.293-21.454,37.962
					c-0.676,1.204-2.311,2.589-1.392,3.931c1.049,1.531,2.792,0.189,4.195-0.162c13.176-3.29,26.359-6.553,39.502-9.998
					c1.941-0.511,4.729-0.449,5.477-2.858C311.669,438.981,314.183,429.702,316.717,420.823z M643.149,236.617
					c-15.871-0.555-30.721-1.076-45.57-1.59c-1.122-0.039-1.985,0.249-2.67,1.469c-5.271,9.39-10.564,18.767-15.983,28.056
					c-1.497,2.564-0.271,3.122,1.629,3.739c7.063,2.294,14.165,4.472,21.136,7.067c2.68,0.996,4.392,0.09,6.129-1.73
					C619.285,261.621,630.748,249.609,643.149,236.617z M556.153,427.129c0.001-0.437,0.003-0.875,0.003-1.312
					c-2.001-0.13-4.036-0.084-3.367,3.039c1.99,9.278,4.108,18.523,6.161,27.785c0.347,1.559,0.992,2.413,2.613,2.938
					c14.146,4.588,28.242,9.362,42.362,14.042c0.827,0.274,1.876,0.921,2.603,0.048c0.942-1.133-0.048-2.162-0.531-3.148
					c-6.512-13.266-13.072-26.505-19.517-39.809c-1.223-2.523-2.809-3.652-5.443-3.618
					C572.742,427.194,564.446,427.129,556.153,427.129z M375.315,469.548c-0.886,0.453-1.732,0.841-2.542,1.305
					c-6.922,3.979-13.754,8.16-20.799,11.86c-2.428,1.274-3.424,2.646-3.487,5.529c-0.339,15.4-0.833,30.794-1.255,46.192
					c-0.031,1.105-0.579,2.53,0.61,3.174c1.254,0.678,1.902-0.809,2.603-1.528c10.38-10.624,20.718-21.3,31.05-31.983
					c1.116-1.152,2.012-2.268,1.559-4.341c-1.983-9.087-3.757-18.227-5.659-27.338C377.135,471.164,376.842,469.757,375.315,469.548
					z M572.633,233.895c-0.001-0.061-0.002-0.122-0.004-0.182c-4.927,0-9.855,0.036-14.782-0.019
					c-1.737-0.019-2.743,0.495-3.274,2.56c-1.574,6.128-3.378,12.188-5.129,18.262c-0.616,2.137-0.153,3.531,1.942,4.198
					c6.49,2.063,13.001,4.058,19.423,6.347c2.212,0.788,3.212-0.411,4.09-1.97c4.647-8.253,9.198-16.568,13.822-24.837
					c1.352-2.417,1.187-3.61-1.779-3.666C582.169,234.5,577.403,234.139,572.633,233.895z M605.587,328.033
					c-0.381-0.275-0.851-0.632-1.335-0.964c-7.779-5.308-15.566-10.606-23.341-15.926c-1.418-0.971-2.826-1.432-4.212-0.043
					c-4.464,4.478-8.894,8.998-13.361,13.474c-1.255,1.258-1.383,2.258-0.08,3.724c4.354,4.896,8.552,9.963,12.869,14.9
					c1.315,1.503,2.923,1.569,4.628,0.583c7.702-4.462,15.428-8.883,23.134-13.335C604.686,329.986,605.568,329.536,605.587,328.033
					z M303.939,411.692c0,0.26,0,0.517,0,0.774c4.159,0,8.318-0.053,12.476,0.026c1.532,0.03,2.714-0.187,3.21-2.033
					c1.808-6.734,3.598-13.476,5.518-20.176c0.861-3.004-0.23-4.237-2.804-4.998c-4.748-1.397-9.435-3.042-14.134-4.627
					c-2.016-0.68-3.507-0.25-4.671,1.831c-4.712,8.417-9.419,16.843-14.299,25.148c-2.008,3.418-0.353,3.988,2.229,4.033
					C295.62,411.748,299.78,411.692,303.939,411.692z M296.375,333.753c0.622-0.179,1.551-0.146,2.035-0.634
					c4.499-4.536,8.97-9.105,13.329-13.802c1.096-1.18,0.876-2.535-0.38-3.904c-4.203-4.591-8.312-9.286-12.329-14.069
					c-1.257-1.496-2.219-1.805-3.911-0.792c-7.799,4.669-15.643,9.257-23.531,13.749c-2.755,1.566-2.045,2.655,0.05,4.043
					c5.895,3.905,11.664,8.052,17.679,11.718C291.517,331.405,293.458,333.582,296.375,333.753z M566.68,420.993
					c0.001,0.293,0.001,0.586,0.002,0.88c3.996,0,7.993-0.016,11.99,0.006c2.374,0.013,3.091-0.87,1.855-3.337
					c-4.323-8.638-8.715-17.243-12.769-26.03c-1.376-2.98-3.339-3.266-5.658-2.728c-4.648,1.073-9.233,2.469-13.863,3.642
					c-2.005,0.51-2.861,1.436-2.296,3.866c1.547,6.631,3.003,13.291,4.295,19.983c0.496,2.571,1.525,3.801,3.993,3.742
					C558.378,420.927,562.53,420.993,566.68,420.993z M340.404,220.963c-0.001,0.043-0.003,0.086-0.003,0.128
					c2.921,0.149,5.855,0.157,8.757,0.49c2.323,0.267,3.488-0.405,3.521-3.139c0.074-6.023,0.284-12.046,0.43-18.069
					c0.037-1.496-0.435-2.353-1.958-2.827c-8.546-2.659-17.021-5.584-25.577-8.2c-4.451-1.36-4.796-0.836-3.786,3.875
					c1.254,5.846,2.458,11.707,3.705,17.555c2.144,10.057,2.151,10.057,11.678,10.186
					C338.248,220.976,339.326,220.963,340.404,220.963z M545.837,228.16c5.346,1.957,7.612-0.258,8.026-5.358
					c0.066-0.81,0.501-1.577,0.731-2.376c2.062-7.177,4.156-14.344,6.149-21.544c0.559-2.018,0.956-4.365-2.26-3.591
					c-8.54,2.055-17.051,4.25-25.593,6.292c-1.988,0.476-2.814,1.479-2.835,3.754c-0.055,6.19-0.187,12.385-0.522,18.563
					c-0.183,3.366,1.066,4.42,3.998,4.304C537.827,228.033,542.131,228.16,545.837,228.16z M457.447,168.54
					c-0.093-0.254-0.312-1.061-0.669-1.787c-4.114-8.401-8.284-16.77-12.354-25.194c-1.221-2.529-2.186-2.306-3.447-0.085
					c-4.592,8.086-9.22,16.15-13.855,24.208c-1.033,1.795-0.987,3.35,0.429,4.923c4.078,4.536,8.125,9.106,12.135,13.713
					c1.252,1.439,2.361,1.97,3.888,0.388c4.22-4.378,8.521-8.665,12.752-13.031C456.968,171.011,457.714,170.282,457.447,168.54z
					 M304.942,260.252c-8.978,2.233-17.953,4.47-26.931,6.698c-2.177,0.54-1.332,1.914-0.504,2.861
					c6.225,7.136,12.523,14.196,18.788,21.29c1.493,1.691,2.92,1.834,4.88,0.598c4.635-2.923,9.364-5.691,14.178-8.245
					c2.118-1.123,2.218-2.189,1.165-4.232c-2.839-5.508-5.549-11.096-8.256-16.683C307.537,261.046,306.664,260.097,304.942,260.252
					z M494.523,176.658c-2.027-9.272-3.996-18.561-6.116-27.808c-0.636-2.773-1.897-1.728-3.229-0.348
					c-6.233,6.457-12.477,12.906-18.825,19.229c-2.337,2.329-2.467,4.396-0.821,7.335c2.312,4.132,4.224,8.54,6.169,12.902
					c1.014,2.274,2.076,2.847,4.271,1.518c5.383-3.258,10.89-6.275,16.362-9.355C493.65,179.389,494.729,178.562,494.523,176.658z
					 M518.51,460.07c0-2.406-0.119-4.427,0.029-6.428c0.179-2.396-0.664-3.769-2.799-4.406c-5.337-1.593-10.68-3.176-15.964-4.962
					c-1.892-0.638-2.81-0.288-3.396,1.811c-1.607,5.76-3.381,11.464-5.001,17.218c-0.577,2.056-0.29,3.731,1.721,5.055
					c7.182,4.723,14.251,9.649,21.363,14.494c2.326,1.582,3.184,0.936,3.242-2.098C517.841,473.726,518.236,466.705,518.51,460.07z
					 M398.659,144.116c-1.368,0.514-1.645,1.961-1.967,3.154c-2.197,8.151-4.056,16.421-6.554,24.458
					c-0.914,2.939-0.229,4.365,1.753,5.722c4.663,3.194,9.374,6.301,14.03,9.506c1.899,1.307,2.987,0.569,4.033-1.326
					c2.594-4.705,5.168-9.438,8.034-13.947c1.642-2.584,1.351-4.211-0.619-6.418c-5.621-6.299-10.993-12.863-16.496-19.288
					C400.261,145.262,399.438,144.76,398.659,144.116z M380.521,468.452c1.94,9.14,3.826,18.094,5.749,27.037
					c0.604,2.812,1.884,1.983,3.217,0.612c6.46-6.639,12.876-13.327,19.417-19.873c1.578-1.58,2.265-2.938,1.148-5.152
					c-2.361-4.683-4.605-9.436-6.89-14.166c-0.905-1.874-1.942-2.764-4.001-1.521c-5.361,3.232-10.819,6.271-16.226,9.415
					C381.541,465.613,380.306,466.599,380.521,468.452z M569.186,382.88c1.833-0.391,3.356-0.654,4.85-1.045
					c6.869-1.8,13.683-3.881,20.607-5.36c3.925-0.837,2.857-2.377,1.116-4.419c-5.325-6.252-10.726-12.433-16.009-18.727
					c-1.579-1.885-2.992-2.419-5.185-1.06c-4.529,2.805-9.136,5.483-13.833,7.935c-2.75,1.437-3.135,3.102-1.735,5.906
					c2.045,4.103,4.263,8.098,5.968,12.426C565.668,380.318,566.754,382.984,569.186,382.88z M535.3,425.244
					c-0.001-0.064-0.002-0.128-0.003-0.191c-2.928,0-5.86,0.114-8.779-0.039c-2.02-0.105-3.259,0.297-3.295,2.873
					c-0.076,5.362-0.296,10.722-0.446,16.081c-0.047,1.673,0.506,2.963,2.08,3.483c8.826,2.918,17.644,5.871,26.495,8.691
					c1.799,0.571,2.905,0.195,2.265-2.562c-1.504-6.475-2.575-13.065-3.991-19.566c-1.791-8.213-1.862-8.185-9.71-8.457
					C538.375,425.503,536.839,425.35,535.3,425.244z M349.732,461.442c-0.286,0-0.571,0-0.856,0c0,4.674-0.015,9.347,0.005,14.022
					c0.009,2.475,0.863,3.383,3.111,2.057c6.848-4.043,13.677-8.127,20.623-11.963c2.452-1.352,2.829-3.189,2.282-5.708
					c-1.163-5.351-2.443-10.675-3.446-16.06c-0.628-3.375-2.208-4.33-5.175-3.56c-4.608,1.195-9.257,2.199-13.886,3.295
					c-1.919,0.457-2.756,1.665-2.696,3.911C349.819,452.101,349.732,456.774,349.732,461.442z M526.37,176.85
					c0.257,0.002,0.513,0.003,0.771,0.005c0-2.176-0.038-4.353,0.006-6.527c0.102-4.941-0.707-5.699-4.55-3.422
					c-6.814,4.037-13.466,8.394-20.229,12.535c-1.883,1.152-2.571,2.539-1.995,4.9c1.3,5.317,2.441,10.679,3.616,16.032
					c0.503,2.289,1.458,3.476,3.892,2.79c5.043-1.421,10.128-2.67,15.211-3.921c2.181-0.537,3.427-1.509,3.336-4.335
					C526.236,188.894,526.37,182.869,526.37,176.85z M346.423,429.729c0-2.173-0.159-4.365,0.038-6.516
					c0.292-3.179-0.678-4.417-3.771-4.396c-5.839,0.035-11.685-0.32-17.521-0.641c-2.349-0.131-3.637,0.647-4.3,3.298
					c-1.936,7.732-4.049,15.414-6.226,23.07c-0.813,2.857-0.322,3.705,2.481,2.942c6.852-1.861,13.782-3.391,20.611-5.347
					C346.21,439.707,346.178,439.58,346.423,429.729z M309.328,225.106c0.001-0.164,0.002-0.327,0.002-0.491
					c-3.851,0-7.705,0.09-11.552-0.033c-2.492-0.079-3.573,0.263-2.034,3.292c3.708,7.308,7.177,14.759,10.777,22.133
					c1.261,2.584,2.784,3.993,5.927,2.961c4.4-1.445,8.989-2.226,13.517-3.185c2.447-0.519,3.447-1.889,2.873-4.59
					c-1.109-5.216-2.194-10.438-3.247-15.667c-0.617-3.066-2.292-4.498-5.191-4.438C316.71,225.163,313.02,225.106,309.328,225.106z
					 M358.416,185.401c-0.248,0-0.495,0-0.744,0c0,2.174,0.041,4.349-0.015,6.521c-0.037,1.445,0.135,2.699,1.612,3.176
					c5.431,1.755,10.862,3.51,16.303,5.228c1.634,0.515,2.64-0.271,3.122-2c1.647-5.906,3.348-11.795,4.938-17.72
					c0.356-1.329,0.703-2.452-1.104-3.61c-7.125-4.565-14.082-9.453-20.988-14.408c-2.45-1.757-3.163-1.224-3.141,1.782
					C358.45,171.38,358.416,178.392,358.416,185.401z M301.309,373.342c1.519,0.353,2.276-0.742,2.923-1.913
					c2.933-5.308,5.72-10.717,8.803-15.917c1.26-2.124,0.338-2.984-1.061-3.937c-4.171-2.845-8.402-5.585-12.509-8.531
					c-1.914-1.371-3.331-1.044-4.905,0.559c-6.026,6.14-12.111,12.209-18.165,18.315c-1.14,1.149-2.135,2.342,0.277,3.149
					C284.884,367.822,293.096,370.58,301.309,373.342z M599.978,281.938c-0.645-2.853-1.96-2.844-3.118-3.228
					c-6.307-2.096-12.628-4.153-18.874-6.449c-2.014-0.741-3.162-0.249-4.21,1.586c-3.31,5.798-6.607,11.61-10.067,17.303
					c-1.032,1.701-0.274,2.444,0.805,3.19c3.871,2.68,7.767,5.318,11.674,7.934c1.227,0.819,2.306,1.203,3.648-0.234
					c6.106-6.538,12.324-12.952,18.551-19.354C598.925,282.133,599.83,282.003,599.978,281.938z M475.631,499.586
					c1.189-0.015,1.335-0.846,1.565-1.653c2.427-8.46,4.842-16.923,7.321-25.362c0.762-2.596-0.275-4.061-2.231-5.317
					c-3.438-2.205-6.87-4.444-10.157-6.905c-2.282-1.707-3.778-1.526-5.199,1.159c-2.526,4.77-5.1,9.52-7.896,14.102
					c-1.398,2.292-1.062,3.873,0.538,5.702c4.96,5.67,9.844,11.421,14.771,17.129C474.753,498.914,475.278,499.273,475.631,499.586z
					 M557.9,290.065c1.319-0.02,1.844-0.917,2.327-1.747c3.131-5.368,6.209-10.77,9.336-16.139c1.26-2.162-0.191-2.427-1.568-3.036
					c-4.516-1.996-9.33-2.875-13.783-5.349c-5.012-2.781-7.085-1.183-8.692,4.8c-2.947,10.968-2.945,10.963,5.971,16.989
					c1.697,1.147,3.368,2.339,5.049,3.514C557.046,289.451,557.549,289.815,557.9,290.065z M334.562,413.125
					c1.799,0,3.028-0.01,4.258,0c7.73,0.067,7.73,0.07,8.079-8.482c0.419-10.265,0.407-10.229-8.218-13.612
					c-10.277-4.031-8.572-2.946-10.814,6.011c-0.282,1.126-0.644,2.228-0.953,3.348c-1.053,3.81-4.093,8.488-2.542,11.246
					C326.302,415.063,331.468,412.156,334.562,413.125z M523.95,410.251c0,1.674,0.165,3.374-0.034,5.019
					c-0.442,3.663,0.722,5.043,4.276,4.95c4.904-0.128,9.83,0.333,14.732,0.719c3.017,0.235,3.895-0.959,3.108-4.108
					c-1.244-4.993-2.427-10.014-3.425-15.073c-1.302-6.583-1.214-6.61-7.083-5.177c-0.739,0.182-1.457,0.467-2.188,0.69
					C522.231,400.693,524.302,398.076,523.95,410.251z M539.602,232.717c-10.342-0.07-10.343-0.07-10.686,11.26
					c-0.016,0.501,0.026,1.011-0.047,1.502c-0.574,3.867,0.67,5.861,4.349,7.238c11.419,4.274,11.517,4.406,14.854-8.055
					C551.25,232.796,551.25,232.796,539.602,232.717z M390.23,434.311c-4.267,1.053-8.438,2.184-12.651,3.082
					c-2.481,0.529-2.861,1.985-2.329,4.349c1.24,5.522,2.527,11.042,3.505,16.624c0.469,2.677,1.521,2.438,3.131,1.455
					c5.225-3.188,10.441-6.388,15.664-9.572c0.837-0.509,1.702-0.985,1.055-2.271c-2.135-4.243-4.267-8.49-6.447-12.706
					C391.754,434.494,390.97,434.259,390.23,434.311z M558.196,330.533c-0.239,0.114-0.742,0.203-1.052,0.519
					c-2.913,2.956-5.777,5.968-8.693,8.92c-0.953,0.965-1.012,1.929-0.418,3.119c2.032,4.086,4.131,8.138,6.002,12.311
					c0.945,2.107,2.035,2.782,3.961,1.628c4.555-2.731,9.093-5.498,13.688-8.149c1.982-1.144,2.238-2.148,0.548-3.979
					c-3.916-4.234-7.667-8.651-11.502-12.974C560.096,331.216,559.452,330.446,558.196,330.533z M352.214,234.961
					c0-1.839-0.023-3.678,0.006-5.517c0.029-1.762-0.556-2.93-2.326-2.985c-5.831-0.182-11.664-0.307-17.492-0.535
					c-2.696-0.105-3.022,1.28-2.479,3.766c0.815,3.729,1.389,7.518,2.081,11.277c1.219,6.616,1.417,6.738,7.63,5.032
					c1.933-0.53,3.873-1.026,5.81-1.538C352.151,242.689,352.151,242.689,352.214,234.961z M318.241,287.189
					c-4.717,3.198-10.429,5.394-15.138,9.468c-1.345,1.164-0.069,2.447,0.72,3.398c1.956,2.361,3.958,4.681,6,6.956
					c6.632,7.39,6.643,7.378,13.887,0.498c0.232-0.221,0.454-0.455,0.7-0.655c2.749-2.232,4.346-4.329,1.381-8.103
					c-2.04-2.597-3.097-6.118-4.536-9.258C320.699,288.281,320.305,286.973,318.241,287.189z M500.027,202.245
					c-0.611-2.665-1.247-5.248-1.794-7.854c-2.303-10.961-2.293-10.964-11.214-5.848c-0.544,0.313-1.095,0.613-1.641,0.922
					c-10.759,6.076-10.815,6.458-4.113,17.379c1.146,1.868,2.37,2.298,4.253,1.805c4.02-1.053,8.057-2.042,12.114-2.921
					C499.556,205.31,500.179,204.112,500.027,202.245z M525.939,213.016c0.142-9.752,0.142-9.752-7.619-7.635
					c-0.298,0.081-0.601,0.14-0.896,0.229c-12.057,3.655-12.063,3.658-8.57,16.944c0.405,1.54,0.181,3.635,1.994,4.199
					c4.325,1.346,8.778,1.197,13.183,0.634c1.52-0.193,1.331-1.979,1.393-3.293C525.611,220.101,525.795,216.108,525.939,213.016z
					 M334.353,270.731c-1.158-4.972-2.192-9.983-3.532-14.896c-0.544-1.994-2.07-1.723-3.786-1.2
					c-4.414,1.348-8.883,2.583-13.403,3.371c-2.587,0.453-2.223,1.479-1.363,3.266c2.549,5.293,4.988,10.651,7.631,15.887
					c0.728,1.439,1.969,2.634,3.801,1.523c2.937-1.781,5.928-3.462,8.815-5.334C333.352,272.807,334.495,272.226,334.353,270.731z
					 M438,190.033c-0.326-0.461-0.581-0.88-0.887-1.248c-3.913-4.715-7.86-9.396-11.737-14.145c-1.46-1.79-2.47-1.42-3.51,0.439
					c-2.636,4.707-5.294,9.398-8.008,14.052c-0.814,1.397-0.857,2.607,0.535,3.355c4.396,2.36,8.039,7.321,12.752,7.523
					c3.92,0.168,5.981-5.712,9.469-8.118c0.26-0.179,0.545-0.356,0.726-0.613C437.604,190.904,437.782,190.458,438,190.033z
					 M404.912,194.074c0.142-1.875-1.1-2.211-1.923-2.799c-3.966-2.835-8.04-5.494-11.951-8.41
					c-2.584-1.927-3.722-1.133-4.449,1.929c-1.104,4.667-2.428,9.271-3.64,13.909c-0.289,1.104-0.764,2.236-0.141,3.37
					c0.704,1.28,12.874,5.532,14.206,5C397.827,206.748,404.907,194.796,404.912,194.074z M331.652,366.586
					c0.08-0.613-0.089-1.383-0.827-1.896c-3.466-2.415-6.93-4.831-10.403-7.234c-1.7-1.173-2.587,0.188-3.331,1.445
					c-2.656,4.497-5.193,9.079-7.86,13.566c-1.176,1.977-0.621,3.175,1.227,3.792c4.976,1.662,9.99,3.186,14.959,4.867
					c1.374,0.465,2.117-0.1,2.486-1.347C329.17,375.486,330.358,371.164,331.652,366.586z M459.747,175.049
					c-0.761,0.642-1.54,1.194-2.206,1.878c-1.892,1.942-3.714,3.966-5.608,5.906c-7.688,7.878-7.604,9.308,0.698,16.616
					c1.356,1.194,2.68,1.753,4.191,0.93c3.42-1.86,6.791-3.83,10.135-5.847c1.407-0.849,2.414-1.782,1.268-3.958
					c-2.356-4.475-4.387-9.152-6.623-13.705C461.216,176.087,460.866,175.021,459.747,175.049z M546.043,388.704
					c5.312-1.244,10.24-2.383,15.164-3.555c2.424-0.575,1.763-2.333,1.042-3.828c-2.19-4.558-4.503-9.044-6.744-13.573
					c-1.059-2.137-2.256-2.515-4.469-1.472c-10.017,4.729-10.052,4.635-8.28,16.152c0.203,1.314,0.15,2.724,0.586,3.93
					C543.835,387.731,544.629,389.119,546.043,388.704z M315.836,322.616c-0.206,0.172-0.706,0.528-1.148,0.954
					c-4.114,3.966-8.209,7.952-12.328,11.91c-1.563,1.501-0.907,2.485,0.536,3.441c3.91,2.59,7.839,5.15,11.674,7.865
					c2.152,1.524,3.341,0.453,4.415-1.455c0.635-1.132,1.286-2.255,1.901-3.399c5.34-9.924,5.326-9.911-2.519-17.904
					C317.707,323.356,317.339,322.338,315.836,322.616z M356.735,212.661c0.039,0.003,0.078,0.006,0.117,0.01
					c0,1.17,0.172,2.376-0.031,3.504c-0.788,4.398,0.739,5.667,4.85,5.73c9.856,0.152,9.85,0.415,12.932-9.789
					c0.286-0.948,0.612-1.887,0.986-2.796c0.988-2.408,0.275-3.618-2.062-4.324c-3.985-1.203-7.904-2.671-11.831-4.096
					c-3.288-1.196-4.808-0.385-4.474,3.773C357.434,207.3,356.922,209.996,356.735,212.661z M519.021,434.621
					c0.01,0.002,0.019,0.002,0.028,0.002c0.101-1.5,0.083-3.024,0.322-4.5c0.702-4.31-0.688-6.197-4.875-5.756
					c-2.739,0.291-5.545,0.185-8.293-0.077c-3.064-0.296-4.309,1.098-5.052,4.276c-2.312,9.89-2.434,9.855,6.306,13.011
					c0.875,0.313,1.755,0.606,2.631,0.918c8.468,3.005,8.466,3.005,8.812-6.373C518.918,435.62,518.979,435.122,519.021,434.621z
					 M484.886,462.474c2.163,0.337,2.587-0.97,2.959-2.275c0.949-3.342,1.892-6.685,2.791-10.041
					c2.18-8.154,2.186-8.224-5.378-10.522c-1.685-0.512-3.984-2.425-5.146-0.739c-2.918,4.239-5.227,8.982-7.692,13.578
					c-0.206,0.388,0.06,1.503,0.419,1.757C476.948,457.125,481.117,459.915,484.886,462.474z M350.274,429.146
					c0,1.84,0.24,3.729-0.05,5.515c-0.562,3.442,0.644,4.131,3.492,3.372c4.174-1.116,8.397-2.014,12.598-3.011
					c1.063-0.255,2.557-0.582,2.381-1.893c-0.551-4.107-1.074-8.303-2.344-12.18c-0.907-2.764-3.874-1.165-5.827-1.392
					C350.44,418.389,350.429,418.513,350.274,429.146z M561.001,298.171c-1.312-0.039-1.819,1.08-2.39,2.037
					c-1.328,2.221-2.665,4.44-3.886,6.732c-3.944,7.383-3.925,7.395,1.728,13.56c0.107,0.117,0.198,0.254,0.295,0.383
					c1.316,1.744,2.42,1.984,4.101,0.15c3.775-4.119,7.813-7.949,11.733-11.91c0.648-0.655,1.459-1.278,1.24-2.436
					C573.702,306.049,561.709,298.155,561.001,298.171z M475.771,436.356c-0.577-0.209-1.171-0.442-1.775-0.638
					c-4.539-1.46-9.078-2.924-13.624-4.354c-0.847-0.267-1.426,0.37-1.995,0.936c-1.798,1.796-3.525,3.691-5.425,5.351
					c-1.898,1.659-1.073,2.642,0.475,3.66c3.92,2.578,7.807,5.216,11.769,7.718c0.701,0.443,1.822,1.615,2.426,0.695
					C470.262,445.701,472.673,441.495,475.771,436.356z M538.167,296.064c-0.318,2.237,0.317,3.318,1.195,4.341
					c2.092,2.432,4.243,4.813,6.181,7.384c1.521,2.018,2.546,1.978,3.732-0.284c7.946-15.157,10.511-10.495-3.711-20.036
					c-0.911-0.611-1.866-1.149-2.812-1.699c-1.063-0.617-1.794-0.202-2.115,0.979C539.723,290.095,538.858,293.454,538.167,296.064z
					 M351.74,255.33c0-1.505-0.014-3.012,0.004-4.518c0.02-1.69-0.544-2.528-2.236-2.034c-4.574,1.334-10.173,1.335-13.423,4.347
					c-2.683,2.486,1.266,7.91,1.374,12.184c0.02,0.795,0.392,1.611,0.719,2.356c0.347,0.792,0.942,1.229,1.836,1.188
					C345.073,268.619,351.662,261.019,351.74,255.33z M497.838,226.827c0.765,0.049,1.536,0.05,2.295,0.156
					c3.758,0.518,5.159-0.455,4.06-5.138c-2.822-12.012-2.614-12.079-13.825-9.224c-1.188,0.302-2.331,0.799-3.504,1.17
					c-1.309,0.414-1.518,1.081-1.07,2.578C487.845,223.218,491.363,226.359,497.838,226.827z M519.773,410.34
					c0-1.673-0.13-3.357,0.026-5.01c0.334-3.536-0.452-4.365-4.035-3.668c-5.879,1.146-9.017,4.006-10.081,10.611
					c-1.088,6.766-1.548,6.68,4.945,7.092C519.701,419.937,519.701,419.937,519.773,410.34z M450.435,468.882
					c-0.329,2.225,1.05,3.512,2.507,4.336c1.761,0.994,2.299-0.962,3.017-2.152c0.925-1.53,1.793-3.102,2.664-4.672
					c6.306-11.367,6.304-11.37-4.09-17.998c-0.133-0.083-0.264-0.172-0.396-0.257c-2.488-1.651-3.833-0.969-3.557,2.275
					C451.109,456.588,450.714,462.731,450.435,468.882z M347.749,382.148c-0.027-3.226,0.993-6.21-2.277-7.881
					c-2.047-1.046-3.95-2.497-5.771-3.979c-2.79-2.262-4.121-1.729-5.173,2.027c-3.005,10.722-3.136,10.679,6.79,14.139
					C347.595,388.644,347.595,388.644,347.749,382.148z M528.25,264.647c-1.421,4.056,1.618,5.961,4.696,8.224
					c6.077,4.468,7.107,3.276,8.221-2.964c1.66-9.314,2.083-9.226-6.34-11.761C528.338,256.193,528.149,256.357,528.25,264.647z
					 M414.534,213.271c3.541-1.552,5.519-5.104,8.28-7.574c0.766-0.683-0.232-1.502-0.841-1.89
					c-3.887-2.482-7.375-6.966-11.843-6.702c-3.423,0.202-3.598,6.003-5.97,8.741c-0.401,0.464-0.595,1.16-0.823,1.777
					c-0.409,1.111-0.148,1.981,0.954,2.344C407.656,211.073,411.031,212.143,414.534,213.271z M351.092,405.748
					c0,0.612,0.185,2.474-0.041,4.279c-0.396,3.187,0.801,3.867,3.589,3.93c10.151,0.238,10.148,0.366,8.223-10.331
					c-0.774-4.306-5.582-8.652-9.736-7.664c-3.788,0.897-1.029,5.058-1.91,7.563C351.112,403.822,351.171,404.189,351.092,405.748z
					 M524.684,388.729c1.326,1.32-2.186,4.577,0.91,4.748c4.566,0.252,8.943-1.916,13.385-3.119c0.32-0.087,0.576-0.751,0.731-1.201
					c0.445-1.288-2.117-12.23-3.052-12.978c-0.327-0.264-0.805-0.434-1.21-0.43C529.69,375.809,524.428,382.091,524.684,388.729z
					 M416.299,438.469c-0.062-0.152-0.133-0.299-0.185-0.455c-2.1-6.175-13.189-9.523-18.356-5.603
					c-1.095,0.829-0.623,1.626-0.37,2.57c3.127,11.668,5.235,12.645,14.686,6.799c1.062-0.657,2.171-1.23,3.248-1.862
					C415.851,439.609,416.399,439.291,416.299,438.469z M536.993,353.166c0.812,4.261,1.504,8.028,2.262,11.781
					c0.271,1.343,0.972,2.085,2.322,1.328c3.245-1.813,7.452-2.738,9.274-6.006c1.271-2.278-1.933-5.163-3.083-7.804
					c-0.79-1.807-1.64-3.588-2.552-5.325c-0.525-0.998-1.435-2.463-2.449-1.437C540.508,347.997,537.462,349.753,536.993,353.166z
					 M525.07,241.03c0.22-8.405,0.22-8.407-7.507-8.451c-1.379-0.009-2.76-0.013-4.138,0.028c-0.75,0.022-1.505,0.062-1.924,0.968
					c-1.167,2.518,2.402,12.149,4.946,13.295C524.769,250.616,524.818,250.583,525.07,241.03z M332.859,358.645
					c0.642,0.138,1.256-0.234,1.309-0.922c0.333-4.355,4.131-8.481,2.146-12.705c-3.901-8.302-7.026-8.111-11.242-0.07
					c-0.68,1.293-1.377,2.577-2.086,3.853c-0.477,0.858-0.984,1.667-0.492,2.753C322.967,352.598,331.752,358.712,332.859,358.645z
					 M338.481,290.799c-0.85-3.959-1.48-7.567-2.433-11.069c-0.512-1.878-1.839-1.624-3.357-0.904
					c-9.72,4.607-9.786,4.753-4.484,14.682c0.687,1.286,1.157,2.713,1.893,3.962c0.445,0.752,1.212,2.13,2.097,1.154
					C334.468,296.122,337.657,294.366,338.481,290.799z M382.888,222.595c0,0.025,0,0.05,0,0.075c1.076,0,2.155,0.061,3.227-0.012
					c2.074-0.143,8.436-7.962,7.459-9.568c-2.49-4.098-7.387-3.006-10.944-5.049c-1.933-1.109-2.889,1.307-3.292,2.52
					c-1.032,3.11-1.505,6.44-2.202,9.682c-0.317,1.475,0.267,2.271,1.606,2.338C380.122,222.649,381.506,222.595,382.888,222.595z
					 M465.917,213.666c3.405-0.901,6.521-1.688,9.616-2.562c1.367-0.385,1.29-1.499,1.108-2.784
					c-1.241-8.749-5.225-10.974-12.275-6.77c-1.337,0.798-2.647,1.65-3.937,2.539c-0.618,0.424-1.433,0.726-1.471,1.744
					C458.919,206.935,465.128,213.62,465.917,213.666z M379.404,420.195c-10.576-0.075-8.854-1.15-7.324,7.974
					c0.689,4.102,2.366,4.783,5.583,3.76c2.794-0.888,5.617-1.674,8.454-2.374c2.094-0.516,2.554-1.391,1.875-3.815
					C386.367,419.928,382.305,419.984,379.404,420.195z M356.17,240.972c2.858,0.713,5.146-1.446,7.767-1.28
					c0.448,0.028,0.931-0.091,1.358-0.26c1.758-0.695,5.231-9.538,4.473-11.295c-0.49-1.135-1.473-1.014-2.363-1.166
					c-9.631-1.645-10.937-0.488-11.23,9.986C356.138,238.288,356.17,239.624,356.17,240.972z M334.589,317.22
					c-0.593-3.154-2.501-5.422-3.831-7.999c-0.483-0.936-1.241-0.607-1.902,0.044c-2.609,2.56-5.276,5.051-7.85,7.652
					c-2.165,2.185,0.2,3.52,1.222,4.271c2.474,1.817,3.525,7.475,6.978,5.488C331.888,325.13,333.351,320.77,334.589,317.22z
					 M449.498,203.114c-1.895-3.092-4.388-6.1-7.271-8.486c-1.991-1.648-3.101,1.268-4.288,2.444
					c-6.861,6.803-6.82,6.852,0.284,11.593C440.489,210.178,449.279,206.15,449.498,203.114z M376.296,414.797
					c0.917,0,2.149,0.042,3.379-0.009c1.579-0.065,2.058-0.827,1.683-2.619c-1.317-6.294-7.452-11.649-13.262-11.461
					c-0.896,0.027-1.748,0.366-1.55,1.294c0.833,3.901,1.333,8.048,2.99,11.519C370.561,415.672,373.776,414.287,376.296,414.797z
					 M351,275.01c0.051-6.219-0.081-6.312-4.677-4.068c-0.279,0.136-0.589,0.201-0.862,0.348c-5.373,2.862-6.879,9.45-3.502,14.849
					c0.615,0.981,1.3,1.004,1.826,0.458C347.107,283.141,351.996,280.729,351,275.01z M539.452,324.554
					c1.815-3.175,3.089-5.638,4.583-7.93c0.938-1.437,1.116-2.55-0.067-3.881c-1.91-2.149-3.812-4.318-5.594-6.593
					c-1.654-2.111-2.254-1.161-3.154,0.789C531.957,314.018,535.923,318.851,539.452,324.554z M532.684,357.121
					c-6.743,4.47-8.393,8.052-7.375,15.294c0.118,0.835,0.136,1.684,0.965,2.089c1.934,0.94,9.334-5.015,8.889-7.312
					C534.513,363.84,533.548,360.56,532.684,357.121z M555.209,326.188c-1.733-2.781-3.359-5.43-5.822-6.628
					c-1.904-0.924-2.552,1.886-3.497,3.202c-1.212,1.689-1.928,3.793-3.058,5.563c-1.982,3.108,0.188,5.242,1.695,6.988
					c1.816,2.104,2.678-0.952,3.882-1.771c1.283-0.87,2.364-2.122,3.442-3.306C553.02,328.953,554.082,327.558,555.209,326.188z
					 M347.722,369.442c1.493-7.031,0.835-12.685-4.621-16.932c-1.896-1.478-2.466-1.16-3.233,0.96
					c-2.854,7.904-2.757,8.398,3.674,13.12C344.792,367.509,346.097,368.337,347.722,369.442z M493.25,423.967
					c-4.35,0.018-10.221,5.081-9.285,8.361c1.167,4.1,5.398,2.732,8.225,3.822c1.811,0.692,5.451-6.604,5.112-10.285
					C496.994,422.526,494.428,424.628,493.25,423.967z M499.634,231.924c-0.612,0-1.23-0.06-1.836,0.012
					c-1.142,0.136-2.669-0.968-3.346,0.488c-0.574,1.237,0.81,2.35,1.14,3.574c1.608,5.972,6.654,6.133,10.87,7.639
					c1.17,0.417,1.945-0.037,1.906-1.768C508.201,234.572,506.053,232.072,499.634,231.924z M480.18,226.512
					c4.954,0.076,4.908-0.571,2.585-6.448c-2.032-5.145-5.257-4.229-8.702-3.094c-1.322,0.436-4.117,0.217-3.67,1.954
					c0.93,3.6,3.769,5.901,7.042,7.223C478.276,226.486,479.262,226.4,480.18,226.512z M528.037,282.528
					c0.026,0.001,0.054,0.003,0.079,0.004c0,0.332,0.04,0.671-0.005,0.994c-0.646,4.591,2.215,8.138,5.117,8.904
					c2.791,0.735,2.261-4.14,3.203-6.54c0.061-0.153,0.135-0.302,0.174-0.462c0.684-2.72-4.643-9.093-7.244-8.685
					c-1.018,0.16-1.073,1.007-1.131,1.824C528.139,279.884,528.099,281.207,528.037,282.528z M480.764,418.35
					c4.848,2.224,6.732-2.721,9.073-6.852c0.772-1.364,1.146-2.896-0.981-2.478c-3.599,0.711-7.255,1.532-10.623,3.018
					c-1.918,0.846-4.613,3.07-4.286,5.062c0.421,2.571,3.453,0.478,5.248,1.098C479.338,418.246,479.5,418.232,480.764,418.35z
					 M483.088,424.148c-5.164-0.25-9.125-0.454-13.09-0.619c-0.761-0.029-1.535,0.049-2.288,0.187
					c-1.252,0.224-2.365,0.724-2.901,2.142c-0.312,0.821,0.111,1.244,0.697,1.504c3.832,1.696,7.741,3.771,11.827,3.663
					C479.924,430.955,480.467,427.02,483.088,424.148z M410.316,217.612c-1.891-0.729-3.706-1.5-5.561-2.132
					c-4.849-1.653-8.319,0.661-9.249,5.986c-0.19,1.09,0.188,1.529,0.946,1.875C400.853,225.354,407.14,222.838,410.316,217.612z
					 M520.417,389.736c-1.182-1.037,1.979-4.611-1.728-4.445c-3.576,0.161-8.062,6.048-8.304,10.006
					c-0.062,1.015-0.212,1.991,1.072,2.278C515.572,398.494,520.35,394.51,520.417,389.736z M385.159,227.716
					c-2.099,0-3.823,0.317-5.409-0.06c-4.992-1.188-5.863,2.421-6.762,6.333c-0.564,2.458,0.222,2.741,2.29,2.623
					C380.382,236.319,383.857,234.055,385.159,227.716z M524.361,260.466c0.15-5.072-2.577-7.99-7.102-7.981
					c-0.906,0.001-1.838,0.41-1.618,1.176c0.851,2.953,0.277,6.444,2.559,8.842c1.422,1.494,3.296,3.442,5.017,2.964
					C525.326,264.882,523.745,261.967,524.361,260.466z M355.66,253.135c0.304,1.793-1.053,4.522,0.791,5.336
					c1.193,0.526,3.624-0.789,4.817-2.046c2.499-2.634,3.767-6.721,3.052-9.93c-0.482-2.163-4.092-0.164-6.233,0.358
					C354.789,247.658,356.097,250.786,355.66,253.135z M491.838,418.306c7.306,1.245,7.303,1.245,9.274-5.469
					c0.274-0.941,0.734-1.859,0.815-2.817c0.108-1.295,1.819-2.988-0.173-3.832c-1.398-0.595-3.101-0.078-4.022,1.519
					C495.742,411.152,493.853,414.67,491.838,418.306z M426.938,217.438c2.816-1.193,6.702-1.606,6.848-4.936
					c0.083-1.902-3.879-4.583-6.048-4.121c-2.766,0.588-6.061,3.412-6.393,6.299C421.052,217.226,425.16,216.077,426.938,217.438z
					 M445.741,213.001c3.389,4.082,7.048,4.72,11.097,3.086c0.825-0.333,2.277-0.389,1.946-2.17
					c-0.635-3.403-5.282-5.852-8.199-4.195C448.982,210.633,447.5,211.799,445.741,213.001z M351.797,378.638
					c0,2.745,0.15,4.865-0.042,6.948c-0.193,2.109-0.461,4.33,1.898,4.876c1.914,0.441,4.017,2.645,5.546,1.391
					c1.709-1.4-0.017-3.974-0.261-6.016C358.432,381.617,354.799,381.054,351.797,378.638z M341.195,331.753
					c-0.02-3.02-1.264-5.852-2.977-6.644c-1.949-0.903-2.692,2.427-3.876,3.999c-0.377,0.499-0.603,1.15-0.841,1.761
					c-0.698,1.794,3.247,8.121,4.995,8.035c0.731-0.035,1.013-0.616,1.182-1.249C340.228,335.588,340.745,333.51,341.195,331.753z
					 M394.901,420.808c-0.596,0.102-2.459-1.237-3.464,0.199c-1.117,1.598,0.891,2.892,1.362,4.383
					c0.662,2.089,2.416,2.063,3.812,1.342c2.246-1.161,6.766-0.051,6.52-2.955C402.847,420.431,398.66,420.817,394.901,420.808z
					 M337.601,311.922c3.64-4.057,4.77-8.24,1.985-13.05C332.846,304.172,332.846,304.172,337.601,311.922z M364.684,387.146
					c-0.837,6.741,0.027,7.797,6.685,9.111c0.729,0.146,1.4,0.793,2.019-0.024c0.672-0.886-0.183-1.485-0.51-2.151
					C371.095,390.473,367.343,389.833,364.684,387.146z M520.528,369.6c-3.105,2.373-4.433,5.821-5.427,9.463
					c-0.158,0.572-0.229,1.438,0.056,1.834c0.608,0.854,1.276,0.115,1.978-0.193C522.188,378.482,520.22,373.644,520.528,369.6z
					 M369.023,251.72c4.315-1.982,6.886-4.849,8.095-9.568C371.075,242.185,369.108,245.632,369.023,251.72z M503.893,248.276
					c-0.804-0.043-1.571,0.044-1.703,1.126c-0.156,1.29,6.331,7.562,7.728,7.425c1.364-0.134,1.058-1.164,0.959-2.201
					C510.544,251.078,507.343,248.116,503.893,248.276z M531.671,320.396c-1.69,3.978-0.349,6.816,0.262,9.581
					c0.288,1.304-0.49,4.394,1.695,3.698c1.826-0.584,3.097-3.277,1.979-5.83C534.583,325.506,533.24,323.328,531.671,320.396z
					 M536.455,345.282c1.477-1.551,3.934-2.66,4.641-5.29c0.312-1.154-0.642-3.916-1.725-3.404
					c-2.513,1.186-3.855,3.948-4.385,6.972C534.836,344.42,534.939,345.229,536.455,345.282z M530.873,306.249
					c0.525-2.136,0.926-3.725,1.308-5.317c0.607-2.529-1.547-3.366-2.565-4.89c-0.438-0.653-1.075-0.622-1.526-0.016
					c-1.005,1.357-0.347,2.917-0.234,4.349C528.022,302.544,528.771,304.516,530.873,306.249z M359.39,264.279
					c-4.549,1.3-5.38,3.631-3.418,9.579C359.057,270.374,359.057,270.374,359.39,264.279z M458.376,221.585
					c2.396,1.718,4.082,3.44,6.346,3.957c0.819,0.187,2.071,0.069,2.578-0.495c0.845-0.941-0.343-1.609-0.807-2.418
					C464.422,219.021,461.818,219.652,458.376,221.585z M344.585,298.375c4.018-3.974,4.853-5.611,5.08-10.34
					C346.701,291.004,343.312,292.852,344.585,298.375z M519.519,270.634c0.448,2.724,0.805,4.972,1.193,7.21
					c0.219,1.253,0.99,2.388,2.038,2.375c1.517-0.02,1.016-1.583,1.134-2.661C524.247,274.231,523.513,271.678,519.519,270.634z
					 M389.417,232.925c3.742-1.137,7.003-0.725,10.04-3.748C395.316,228.335,391.728,226.562,389.417,232.925z M356.387,374.387
					c-0.807-3.626-1.175-6.797-3.743-10.243C352.33,368.713,350.586,372.632,356.387,374.387z M443.368,218.241
					c-0.923-0.458-1.669-0.69-2.268-1.152c-2.264-1.745-3.524,0.918-5.272,1.398c-0.21,0.058-0.484,1.026-0.348,1.189
					c1.396,1.644,3.114,0.914,4.728,0.556C441.219,220.006,442.353,219.911,443.368,218.241z M420.584,220.874
					c-0.631-0.316-1.308-0.631-1.963-0.992c-1.854-1.019-3.233-0.253-4.42,1.341c-0.529,0.712-0.854,1.446-0.047,2.127
					c1.532,1.292,2.919,0.114,4.292-0.458C419.256,222.556,420.241,222.309,420.584,220.874z M344.424,319.358
					c-0.328-1.368,0.245-3.476-1.762-3.491c-1.154-0.01-1.548,1.54-1.483,2.717c0.083,1.5,0.417,3.3,2.05,3.413
					C344.763,322.103,344.397,320.45,344.424,319.358z M365.478,380.16c-1.43-1.397-1.286-4.359-3.996-5.007
					C361.117,378.606,362.995,379.677,365.478,380.16z"/>
				<path fill-rule="evenodd" clip-rule="evenodd" fill="#FFFFFF" d="M446.45,535.818c-1.483,0.041-2.965,0.082-4.447,0.124
					c-2.137-1.485-4.11-2.038-6.755-0.719c-2.974,1.484-6.187-0.662-9.339-0.582c0.238-14.718,0.492-29.433-0.209-44.146
					c-0.208-7.839,1.183-15.723-0.557-23.517c1.584-2.395,0.718-5.023,0.624-7.583c0.05-2.855,0.098-5.707,0.146-8.562
					c-0.026-5.408,0.644-10.847-0.53-16.213c0.379-1.996,0.644-3.99-0.039-5.977c1.312-3.421-0.938-3.886-3.105-4.521
					c-5.369-1.571-11.108-1.106-16.282-4.002c-3.056-1.709-5.406-4.283-8.179-6.299c-0.834-0.609-1.416-1.889-2.722-1.123
					c0.002,0,0.049-0.141,0.049-0.141c0.397-1.344-0.516-1.412-1.311-1.599c-2.121-1.453-4.244-2.904-6.365-4.357
					c-9.138-7.656-15.288-17.688-20.249-28.893c-1.782-4.023-3.973-8.189-8.155-10.478c-2.359-1.293-3.406-4.184-4.398-6.869
					c-2.024-5.479-5.042-10.598-5.023-16.801c-0.364-0.691-0.728-1.384-1.091-2.077c-0.848-2.365-1.436-4.793-1.115-7.354
					c0.547-4.37-2.194-7.992-1.903-12.562c0.476-7.441,1.158-14.635,4.263-21.392c0.678-1.475,1.091-3.115,1.49-4.72
					c6.708-26.943,21.227-46.439,45.443-56.866c4.708-2.027,8.516-6.295,13.51-7.557c14.89-3.762,29.814-5.344,45.232-3.173
					c9.004,1.267,17.712,3.315,26.431,5.716c-0.001,0-0.061,0.08-0.061,0.08c-0.155,0.678,0.188,1.034,0.697,1.283
					c1.591,1.047,3.18,2.093,4.77,3.14c9.126,7.534,16.478,16.785,22.401,27.416c0.524,1.173,1.052,2.346,1.578,3.517
					c7.206,12.058,12.207,24.99,14.513,39.281c1.527,9.468,1.087,18.785,0.404,28.196c-0.232,0.94-0.466,1.878-0.698,2.818
					c-2.926,16.436-8.547,31.696-19.528,43.588c-11.05,11.968-21.802,24.545-35.975,32.528c-5.244,2.958-10.782,4.89-16.612,5.819
					c-2.763,0.438-4.239,1.53-4.206,5.122c0.195,21.455,0.152,42.912,0.19,64.368c-0.111,12.871-0.285,25.742-0.285,38.612
					C449.052,532.065,448.525,534.234,446.45,535.818z M450.31,383.643c0.006,0,0.012,0,0.02,0c0,6.539,0.02,13.078-0.01,19.621
					c-0.015,3.189,0.917,4.149,3.936,2.853c4.998-2.145,10.018-4.228,14.571-7.336c16.389-11.19,32.131-23.097,38.992-44.237
					c1.277-3.941,2.559-7.881,3.749-11.854c3.492-11.674,5.868-23.021,1.838-35.6c-5.718-17.85-12.046-34.899-24.967-48.283
					c-10.542-10.917-22.497-18.928-36.553-23.054c-9.148-2.686-18.365-1.638-27.396,0.606c-8.665,2.152-17.937,1.676-25.036,10.155
					c-3.206,3.832-8.326,6.567-12.295,10.215c-11.771,10.822-20.756,23.165-22.499,40.878c-0.875,8.878-3.218,17.706-3.969,26.654
					c-0.756,9.003-0.59,18.36,3.568,26.44c5.004,9.729,10.84,18.971,16.638,28.185c2.57,4.083,4.646,8.725,8.798,11.473
					c10.397,6.88,21.537,11.992,32.855,16.73c3,1.254,3.003-0.534,3.081-2.771c0.495-14.401,0.788-28.802,0.338-43.219
					c-0.144-4.567-2.162-6.89-5.847-8.873c-13.283-7.15-19.681-19.377-19.707-35.199c-0.025-16.54,10.153-29.542,26.171-33.563
					c22.824-5.732,41.929,9.425,43.997,35.06c1.231,15.257-6.196,25.219-16.95,33.142c-1.748,1.286-3.32,2.455-3.322,4.988
					C450.307,365.648,450.31,374.646,450.31,383.643z"/>
			</g>
		</g>
		<g>
			<path fill="#FFFFFF" d="M266.437,358.419l-0.913,9.527l68.597-0.324l-4.184,43.616l-123.227,0.58l5.578-58.156
				c1.371-14.287,4.635-22.32,17.579-29.896l57.4-34.347l0.89-9.274l-60.116,0.283l-6.591-22.268l2.092-21.809l101.525-0.479
				c12.722-0.06,20.836,8.922,19.609,21.707l-3.848,40.106c-1.347,14.037-4.159,22.569-17.579,29.898L266.437,358.419z"/>
		</g>
	</g>
</g>
</svg>
